<svg fill="#0a0a0a" viewBox="0 0 602 173" xmlns="http://www.w3.org/2000/svg">
  <g transform="matrix(1, 0, 0, 1, -0.09486100077627668, 20.377948760986328)">
    <title>Layer 1</title>
    <path d="m196.8,89.4868l0,-35.76l-15.12,0l0,39.52c0,3.28 -0.24,7.5202 -4.56,7.5202c-3.84,0 -4.4,-3.9202 -4.56,-6.8802l-16.08,0c0,8.6402 3.52,15.6802 11.92,18.7202c2.48,0.96 5.28,1.44 8,1.44c6.32,0 12.72,-2.8 16.72,-7.76c3.68,-4.64 3.68,-11.1202 3.68,-16.8002zm55.328,23.4402l0,-44.4002l-13.28,0l0,4.72l-0.16,0c-2.64,-4.4 -8.08,-6.24 -12.96,-6.24c-13.36,0 -22.32,10.72 -22.32,23.68c0,13.2002 8.64,23.7602 22.32,23.7602c4.8,0 10.56,-1.76 12.96,-6.32l0.16,0l0,4.8l13.28,0zm-13.28,-22.2402c0,6.4 -4.64,11.3602 -11.12,11.3602c-6.24,0 -11.04,-5.0402 -11.04,-11.2002c0,-6.32 4.48,-11.44 10.96,-11.44c6.48,0 11.2,4.8 11.2,11.28zm91.128,22.2402l0,-24.2402c0,-6.8 0.24,-12.08 -4.8,-17.2c-3.12,-3.2 -7.28,-4.48 -11.68,-4.48c-6,0 -10.88,2.88 -14.08,7.92c-2.72,-5.04 -7.04,-7.92 -12.8,-7.92c-5.04,0 -9.68,1.68 -12.24,6.24l-0.16,0l0,-4.72l-12.4,0l0,44.4002l13.28,0l0,-23.6002c0,-5.2 1.36,-9.84 7.52,-9.84c5.6,0 6.64,4.72 6.64,9.28l0,24.1602l13.28,0l0,-24.2402c0,-5.04 1.44,-9.2 7.36,-9.2c6.16,0 6.8,4.96 6.8,9.84l0,23.6002l13.28,0zm42.62,-13.6002c0,-15.68 -22.32,-11.76 -22.32,-18.72c0,-2 2,-2.96 3.76,-2.96c2.32,0 4.08,0.88 4.16,3.36l13.04,0c-0.88,-9.44 -8.16,-14 -17.04,-14c-8.56,0 -17.2,5.36 -17.2,14.64c0,6.24 5.28,9.68 10.56,11.6c1.92,0.72 3.84,1.36 5.76,2c2.4,0.96 6,1.92 6,5.1202c0,2.32 -2.64,3.44 -4.64,3.44c-2.64,0 -4.64,-1.36 -5.04,-4.0802l-13.2,0c1.04,9.7602 8.8,14.7202 18.08,14.7202c9.04,0 18.08,-5.12 18.08,-15.1202zm28.962,-20.72l0,-10.08l-6.4,0l0,-14.8l-13.28,0l0,14.8l-6.56,0l0,10.08l6.56,0l0,34.3202l13.28,0l0,-34.3202l6.4,0zm51.195,34.3202l0,-44.4002l-13.28,0l0,4.72l-0.16,0c-2.64,-4.4 -8.08,-6.24 -12.96,-6.24c-13.36,0 -22.32,10.72 -22.32,23.68c0,13.2002 8.64,23.7602 22.32,23.7602c4.8,0 10.56,-1.76 12.96,-6.32l0.16,0l0,4.8l13.28,0zm-13.28,-22.2402c0,6.4 -4.64,11.3602 -11.12,11.3602c-6.24,0 -11.04,-5.0402 -11.04,-11.2002c0,-6.32 4.48,-11.44 10.96,-11.44c6.48,0 11.2,4.8 11.2,11.28zm67.848,5.36l-13.52,0c-2,3.84 -5.2,5.9202 -9.6,5.9202c-6.48,0 -10.56,-5.0402 -10.56,-11.2802c0,-6 3.84,-11.28 10.24,-11.28c4.56,0 8,2.08 9.92,6.24l13.44,0c-2.32,-11.28 -12.16,-18.64 -23.52,-18.64c-13.2,0 -23.44,10.48 -23.44,23.6c0,13.2802 10.48,23.7602 23.76,23.7602c11.2,0 20.72,-7.44 23.28,-18.3202zm48.135,-27.52l-15.76,0l-12.32,16.08l-0.16,0l0,-30.88l-13.28,0l0,59.2002l13.28,0l0,-21.3602l0.16,0l12.56,21.3602l15.04,0l-16.24,-24.8802l16.72,-19.52z" fill="rgb(30,30,30)" id="svg_2"></path>
    <path d="m81.7,38.23c-26.8019,0 -48.4701,21.6682 -48.4701,48.4701c0,26.8019 21.6682,48.4699 48.4701,48.4699c26.802,0 48.47,-21.668 48.47,-48.4699l0,-48.4701l-48.47,0z" fill="#F0047F" id="svg_3"></path>
    <path d="m80.1333,88.2002l0,33.9848c-18.3939,-0.778 -33.2064,-15.591 -33.9846,-33.9848l33.9846,0z" fill="white" id="svg_4" stroke="#F0047F"></path>
    <path d="m83.2001,88.2666l33.9849,0c-0.779,18.3934 -15.591,33.2064 -33.9849,33.9844l0,-33.9844z" fill="white" id="svg_5" stroke="#F0047F"></path>
    <path d="m83.2001,85.1333l0,-34.0024l34.0029,0l0,34.0024l-34.0029,0z" fill="white" id="svg_6" stroke="#F0047F"></path>
  </g>
  <path d="M 183.32 54.915 L 183.32 43.228 L 179.882 43.228 L 179.882 39.726 L 191.645 39.726 L 191.645 43.228 L 188.132 43.228 L 188.132 54.915 Z" style="fill: rgb(30, 30, 30)"></path>
  <path d="M 193.435 38.415 L 198.076 38.415 L 198.076 44.914 Q 198.377 44.495 198.849 44.151 Q 199.322 43.808 199.891 43.555 Q 200.461 43.303 201.094 43.168 Q 201.728 43.034 202.362 43.034 Q 203.146 43.034 203.839 43.287 Q 204.532 43.539 205.047 44.098 Q 205.563 44.656 205.858 45.532 Q 206.154 46.407 206.154 47.643 L 206.154 54.915 L 201.513 54.915 L 201.513 48.792 Q 201.513 47.986 201.379 47.449 Q 201.245 46.912 201.03 46.584 Q 200.815 46.257 200.541 46.123 Q 200.267 45.988 199.988 45.988 Q 199.666 45.988 199.349 46.112 Q 199.032 46.235 198.769 46.461 Q 198.505 46.686 198.323 46.998 Q 198.14 47.31 198.076 47.686 L 198.076 54.915 L 193.435 54.915 Z" style="fill: rgb(30, 30, 30)"></path>
  <path d="M 220.13 54.453 Q 219.121 54.786 217.95 55.006 Q 216.779 55.227 215.511 55.227 Q 214.126 55.227 212.869 54.861 Q 211.612 54.496 210.656 53.723 Q 209.7 52.949 209.136 51.762 Q 208.572 50.575 208.572 48.932 Q 208.572 47.997 208.862 47.197 Q 209.152 46.396 209.651 45.741 Q 210.151 45.086 210.822 44.581 Q 211.494 44.076 212.262 43.732 Q 213.03 43.389 213.846 43.211 Q 214.663 43.034 215.447 43.034 Q 216.682 43.034 217.628 43.308 Q 218.573 43.582 219.201 44.044 Q 219.83 44.506 220.152 45.118 Q 220.474 45.73 220.474 46.418 Q 220.474 47.256 220.19 47.847 Q 219.905 48.437 219.427 48.84 Q 218.949 49.243 218.32 49.474 Q 217.692 49.705 216.994 49.829 Q 216.296 49.952 215.57 49.984 Q 214.845 50.017 214.19 50.017 Q 213.964 50.017 213.755 50.011 Q 213.546 50.006 213.341 50.006 Q 213.427 50.618 213.68 51.037 Q 213.932 51.456 214.314 51.719 Q 214.695 51.982 215.194 52.095 Q 215.694 52.208 216.263 52.208 Q 216.693 52.208 217.182 52.144 Q 217.671 52.079 218.17 51.966 Q 218.67 51.853 219.169 51.708 Q 219.669 51.563 220.13 51.402 Z M 213.245 48.352 Q 213.503 48.341 213.905 48.319 Q 214.308 48.298 214.759 48.244 Q 215.211 48.19 215.662 48.094 Q 216.113 47.997 216.478 47.847 Q 216.843 47.696 217.069 47.471 Q 217.295 47.245 217.295 46.923 Q 217.295 46.375 216.859 46.047 Q 216.424 45.72 215.651 45.72 Q 215.296 45.72 214.888 45.822 Q 214.48 45.924 214.126 46.214 Q 213.771 46.504 213.524 47.019 Q 213.277 47.535 213.245 48.352 Z" style="fill: rgb(30, 30, 30)"></path>
  <path d="M 236.192 54.915 L 231.551 54.915 L 231.551 46.031 L 229.704 46.031 L 229.704 43.324 L 231.53 43.324 Q 231.53 42.003 231.884 41.02 Q 232.239 40.037 232.894 39.382 Q 233.549 38.727 234.479 38.399 Q 235.408 38.071 236.568 38.071 Q 237.513 38.071 238.319 38.275 Q 239.125 38.479 239.801 38.759 L 239.458 41.519 Q 238.835 41.369 238.421 41.267 Q 238.007 41.165 237.621 41.165 Q 237.127 41.165 236.842 41.348 Q 236.557 41.53 236.412 41.831 Q 236.267 42.132 236.23 42.524 Q 236.192 42.916 236.192 43.324 L 239.436 43.324 Q 239.286 44.033 239.2 44.688 Q 239.114 45.344 239.114 46.031 L 236.192 46.031 Z" style="fill: rgb(30, 30, 30)"></path>
  <path d="M 254.223 54.915 L 249.593 54.915 L 249.69 54.174 Q 249.733 53.83 249.765 53.4 Q 249.797 52.971 249.819 52.509 Q 249.497 53.143 249.008 53.642 Q 248.519 54.142 247.928 54.496 Q 247.337 54.851 246.671 55.039 Q 246.005 55.227 245.329 55.227 Q 244.491 55.227 243.739 54.953 Q 242.987 54.679 242.412 54.082 Q 241.837 53.486 241.499 52.546 Q 241.161 51.606 241.161 50.274 L 241.161 43.324 L 245.801 43.324 L 245.801 49.845 Q 245.801 50.511 245.925 50.962 Q 246.048 51.413 246.263 51.692 Q 246.478 51.972 246.757 52.095 Q 247.037 52.219 247.348 52.219 Q 247.713 52.219 248.084 52.068 Q 248.455 51.918 248.761 51.66 Q 249.067 51.402 249.287 51.053 Q 249.507 50.704 249.583 50.307 L 249.583 43.324 L 254.223 43.324 Z" style="fill: rgb(30, 30, 30)"></path>
  <path d="M 263.344 55.227 Q 262.345 55.227 261.432 54.985 Q 260.519 54.743 259.826 54.168 Q 259.133 53.594 258.72 52.643 Q 258.306 51.692 258.306 50.274 L 258.306 45.988 L 256.169 45.988 L 256.169 45.29 L 261.228 39.79 L 262.947 39.79 L 262.947 43.324 L 266.384 43.324 Q 266.255 43.969 266.153 44.624 Q 266.051 45.279 266.041 45.988 L 262.947 45.988 L 262.947 50.231 Q 262.947 50.618 263.006 50.978 Q 263.065 51.338 263.248 51.612 Q 263.43 51.886 263.774 52.052 Q 264.118 52.219 264.687 52.219 Q 265.052 52.219 265.493 52.149 Q 265.933 52.079 266.492 51.886 L 266.75 54.668 Q 266.073 54.915 265.197 55.071 Q 264.322 55.227 263.344 55.227 Z" style="fill: rgb(30, 30, 30)"></path>
  <path d="M 281.833 54.915 L 277.203 54.915 L 277.299 54.174 Q 277.342 53.83 277.375 53.4 Q 277.407 52.971 277.428 52.509 Q 277.106 53.143 276.617 53.642 Q 276.129 54.142 275.538 54.496 Q 274.947 54.851 274.281 55.039 Q 273.615 55.227 272.938 55.227 Q 272.1 55.227 271.348 54.953 Q 270.596 54.679 270.022 54.082 Q 269.447 53.486 269.108 52.546 Q 268.77 51.606 268.77 50.274 L 268.77 43.324 L 273.411 43.324 L 273.411 49.845 Q 273.411 50.511 273.534 50.962 Q 273.658 51.413 273.873 51.692 Q 274.087 51.972 274.367 52.095 Q 274.646 52.219 274.958 52.219 Q 275.323 52.219 275.693 52.068 Q 276.064 51.918 276.37 51.66 Q 276.676 51.402 276.897 51.053 Q 277.117 50.704 277.192 50.307 L 277.192 43.324 L 281.833 43.324 Z" style="fill: rgb(30, 30, 30)"></path>
  <path d="M 285.185 43.324 L 289.6 43.324 Q 289.579 43.603 289.568 43.942 Q 289.557 44.28 289.557 44.651 Q 289.557 45.021 289.557 45.397 Q 289.557 45.773 289.557 46.117 Q 289.772 45.591 290.116 45.038 Q 290.46 44.484 290.927 44.044 Q 291.394 43.603 291.99 43.319 Q 292.587 43.034 293.328 43.034 Q 293.467 43.034 293.634 43.05 Q 293.8 43.066 293.962 43.099 Q 294.123 43.131 294.268 43.179 Q 294.413 43.228 294.509 43.292 L 294.133 47.718 Q 293.65 47.535 293.113 47.444 Q 292.576 47.353 292.178 47.353 Q 291.63 47.353 291.217 47.487 Q 290.803 47.621 290.513 47.836 Q 290.223 48.051 290.057 48.309 Q 289.89 48.566 289.826 48.813 L 289.826 54.915 L 285.185 54.915 Z" style="fill: rgb(30, 30, 30)"></path>
  <path d="M 307.209 54.453 Q 306.199 54.786 305.028 55.006 Q 303.857 55.227 302.589 55.227 Q 301.204 55.227 299.947 54.861 Q 298.69 54.496 297.734 53.723 Q 296.778 52.949 296.214 51.762 Q 295.65 50.575 295.65 48.932 Q 295.65 47.997 295.94 47.197 Q 296.23 46.396 296.73 45.741 Q 297.229 45.086 297.9 44.581 Q 298.572 44.076 299.34 43.732 Q 300.108 43.389 300.924 43.211 Q 301.741 43.034 302.525 43.034 Q 303.76 43.034 304.706 43.308 Q 305.651 43.582 306.279 44.044 Q 306.908 44.506 307.23 45.118 Q 307.552 45.73 307.552 46.418 Q 307.552 47.256 307.268 47.847 Q 306.983 48.437 306.505 48.84 Q 306.027 49.243 305.399 49.474 Q 304.77 49.705 304.072 49.829 Q 303.374 49.952 302.649 49.984 Q 301.923 50.017 301.268 50.017 Q 301.043 50.017 300.833 50.011 Q 300.624 50.006 300.42 50.006 Q 300.505 50.618 300.758 51.037 Q 301.01 51.456 301.392 51.719 Q 301.773 51.982 302.273 52.095 Q 302.772 52.208 303.341 52.208 Q 303.771 52.208 304.26 52.144 Q 304.749 52.079 305.248 51.966 Q 305.748 51.853 306.247 51.708 Q 306.747 51.563 307.209 51.402 Z M 300.323 48.352 Q 300.581 48.341 300.983 48.319 Q 301.386 48.298 301.837 48.244 Q 302.289 48.19 302.74 48.094 Q 303.191 47.997 303.556 47.847 Q 303.921 47.696 304.147 47.471 Q 304.373 47.245 304.373 46.923 Q 304.373 46.375 303.938 46.047 Q 303.503 45.72 302.729 45.72 Q 302.375 45.72 301.966 45.822 Q 301.558 45.924 301.204 46.214 Q 300.849 46.504 300.602 47.019 Q 300.355 47.535 300.323 48.352 Z" style="fill: rgb(30, 30, 30)"></path>
  <path d="M 323.939 55.227 Q 322.671 55.227 321.683 54.99 Q 320.695 54.754 319.954 54.335 Q 319.212 53.916 318.691 53.341 Q 318.171 52.767 317.848 52.09 Q 317.526 51.413 317.381 50.661 Q 317.236 49.909 317.236 49.136 Q 317.236 48.373 317.381 47.626 Q 317.526 46.88 317.848 46.198 Q 318.171 45.516 318.686 44.941 Q 319.202 44.366 319.948 43.942 Q 320.695 43.518 321.683 43.276 Q 322.671 43.034 323.939 43.034 Q 325.207 43.034 326.195 43.276 Q 327.183 43.518 327.93 43.942 Q 328.676 44.366 329.192 44.941 Q 329.708 45.516 330.03 46.198 Q 330.352 46.88 330.497 47.626 Q 330.642 48.373 330.642 49.136 Q 330.642 49.909 330.497 50.661 Q 330.352 51.413 330.03 52.09 Q 329.708 52.767 329.187 53.341 Q 328.666 53.916 327.924 54.335 Q 327.183 54.754 326.195 54.99 Q 325.207 55.227 323.939 55.227 Z M 321.877 49.136 Q 321.877 49.716 321.984 50.269 Q 322.091 50.822 322.333 51.257 Q 322.575 51.692 322.967 51.956 Q 323.359 52.219 323.939 52.219 Q 324.519 52.219 324.911 51.956 Q 325.303 51.692 325.545 51.257 Q 325.787 50.822 325.894 50.269 Q 326.002 49.716 326.002 49.136 Q 326.002 48.556 325.894 48.002 Q 325.787 47.449 325.545 47.014 Q 325.303 46.579 324.911 46.311 Q 324.519 46.042 323.939 46.042 Q 323.359 46.042 322.967 46.311 Q 322.575 46.579 322.333 47.014 Q 322.091 47.449 321.984 48.002 Q 321.877 48.556 321.877 49.136 Z" style="fill: rgb(30, 30, 30)"></path>
  <path d="M 338.387 54.915 L 333.747 54.915 L 333.747 46.031 L 331.899 46.031 L 331.899 43.324 L 333.725 43.324 Q 333.725 42.003 334.08 41.02 Q 334.434 40.037 335.089 39.382 Q 335.745 38.727 336.674 38.399 Q 337.603 38.071 338.763 38.071 Q 339.709 38.071 340.514 38.275 Q 341.32 38.479 341.997 38.759 L 341.653 41.519 Q 341.03 41.369 340.616 41.267 Q 340.203 41.165 339.816 41.165 Q 339.322 41.165 339.037 41.348 Q 338.753 41.53 338.608 41.831 Q 338.462 42.132 338.425 42.524 Q 338.387 42.916 338.387 43.324 L 341.631 43.324 Q 341.481 44.033 341.395 44.688 Q 341.309 45.344 341.309 46.031 L 338.387 46.031 Z" style="fill: rgb(30, 30, 30)"></path>
</svg>